<svg width="104" height="50" viewBox="0 0 104 50" fill="none" xmlns="http://www.w3.org/2000/svg">
<path d="M1.76 36.56C0.773333 36.56 0.28 36.2267 0.28 35.56V35.4L4.32 2.64C4.4 2.10667 4.76 1.8 5.4 1.72C7.37333 1.32 9.97333 1.12 13.2 1.12C16.4267 1.12 18.9733 1.77333 20.84 3.08C22.7067 4.38667 23.64 6.32 23.64 8.88C23.64 11.04 22.88 12.92 21.36 14.52C19.84 16.12 17.76 17.1733 15.12 17.68C16.88 18.4267 18.24 19.8667 19.2 22C19.6533 23.0667 20.08 24.2533 20.48 25.56C20.9067 26.84 21.1733 27.6267 21.28 27.92L23.76 35.16C23.7867 35.24 23.8 35.4 23.8 35.64C23.8 35.8533 23.64 36.0533 23.32 36.24C23.0267 36.4533 22.6533 36.56 22.2 36.56C21.3733 36.56 20.8667 36.2667 20.68 35.68L17.88 27.44C17.16 25.3067 16.5067 23.64 15.92 22.44C15.36 21.2133 14.68 20.3467 13.88 19.84C13.1067 19.3333 11.7733 19.08 9.88 19.08H5.32L3.32 35.48C3.26667 35.88 3.12 36.16 2.88 36.32C2.64 36.48 2.26667 36.56 1.76 36.56ZM10.36 16.44C12.4933 16.44 14.6267 15.88 16.76 14.76C17.8267 14.2 18.6933 13.4133 19.36 12.4C20.0533 11.3867 20.4 10.24 20.4 8.96C20.4 7.28 19.6933 5.96 18.28 5C16.8933 4.04 15.1467 3.56 13.04 3.56C10.9333 3.56 8.98667 3.72 7.2 4.04L5.68 16.44H10.36ZM41.0888 20.2C41.0888 19.5333 40.8754 19.0267 40.4488 18.68C40.0488 18.3067 39.5154 18.12 38.8488 18.12C37.4088 18.12 35.9154 18.7867 34.3688 20.12C32.8221 21.4267 31.8621 23.1867 31.4888 25.4C33.9688 25.4 36.1821 24.9067 38.1288 23.92C40.1021 22.9333 41.0888 21.6933 41.0888 20.2ZM28.0888 27.72C28.0888 25.7733 28.4488 24 29.1688 22.4C29.8888 20.8 30.7954 19.5333 31.8888 18.6C34.1821 16.68 36.5554 15.72 39.0088 15.72C40.4754 15.72 41.6754 16.08 42.6088 16.8C43.5421 17.4933 44.0088 18.4933 44.0088 19.8C44.0088 22.1467 42.7821 24.0667 40.3288 25.56C37.9021 27.0267 34.9021 27.76 31.3288 27.76C31.3288 29.76 31.7954 31.32 32.7288 32.44C33.6621 33.5333 35.0088 34.08 36.7688 34.08C37.5954 34.08 38.3954 33.9067 39.1688 33.56C39.9421 33.2133 40.5554 32.8533 41.0088 32.48L41.6888 31.96C41.9821 31.96 42.2354 32.16 42.4488 32.56C42.6621 32.96 42.7688 33.36 42.7688 33.76C42.7688 34.24 42.0621 34.8267 40.6488 35.52C39.2621 36.2133 37.9154 36.56 36.6088 36.56C33.8354 36.56 31.7154 35.8 30.2488 34.28C28.8088 32.7333 28.0888 30.5467 28.0888 27.72ZM48.2463 36.56C47.8463 36.56 47.5663 36.5067 47.4063 36.4C47.2463 36.2933 47.1663 36.08 47.1663 35.76L51.2463 1.56C51.3529 0.866665 51.8729 0.519999 52.8063 0.519999C53.7663 0.519999 54.2463 0.799999 54.2463 1.36L50.1263 35.56C50.0463 36.2267 49.4196 36.56 48.2463 36.56ZM58.0119 36.56C57.6119 36.56 57.3319 36.5067 57.1719 36.4C57.0119 36.2933 56.9319 36.08 56.9319 35.76L59.2119 16.72C59.2919 16.0533 59.8119 15.72 60.7719 15.72C61.7319 15.72 62.2119 15.9867 62.2119 16.52L59.8919 35.56C59.8119 36.2267 59.1852 36.56 58.0119 36.56ZM63.8119 8.32C63.8119 9.97333 63.0519 10.8 61.5319 10.8C60.3319 10.8 59.7319 10.2933 59.7319 9.28C59.7319 7.65333 60.4919 6.84 62.0119 6.84C63.2119 6.84 63.8119 7.33333 63.8119 8.32ZM79.0575 20.2C79.0575 19.5333 78.8442 19.0267 78.4175 18.68C78.0175 18.3067 77.4842 18.12 76.8175 18.12C75.3775 18.12 73.8842 18.7867 72.3375 20.12C70.7908 21.4267 69.8308 23.1867 69.4575 25.4C71.9375 25.4 74.1508 24.9067 76.0975 23.92C78.0708 22.9333 79.0575 21.6933 79.0575 20.2ZM66.0575 27.72C66.0575 25.7733 66.4175 24 67.1375 22.4C67.8575 20.8 68.7642 19.5333 69.8575 18.6C72.1508 16.68 74.5242 15.72 76.9775 15.72C78.4442 15.72 79.6442 16.08 80.5775 16.8C81.5108 17.4933 81.9775 18.4933 81.9775 19.8C81.9775 22.1467 80.7508 24.0667 78.2975 25.56C75.8708 27.0267 72.8708 27.76 69.2975 27.76C69.2975 29.76 69.7642 31.32 70.6975 32.44C71.6308 33.5333 72.9775 34.08 74.7375 34.08C75.5642 34.08 76.3642 33.9067 77.1375 33.56C77.9108 33.2133 78.5242 32.8533 78.9775 32.48L79.6575 31.96C79.9508 31.96 80.2042 32.16 80.4175 32.56C80.6308 32.96 80.7375 33.36 80.7375 33.76C80.7375 34.24 80.0308 34.8267 78.6175 35.52C77.2308 36.2133 75.8842 36.56 74.5775 36.56C71.8042 36.56 69.6842 35.8 68.2175 34.28C66.7775 32.7333 66.0575 30.5467 66.0575 27.72ZM95.295 18.96H91.295L88.895 39.64C88.3617 44.5733 86.855 47.68 84.375 48.96C83.3883 49.4933 82.1883 49.76 80.775 49.76C79.3617 49.76 78.0283 49.4533 76.775 48.84C75.495 48.2533 74.855 47.72 74.855 47.24C74.855 46.8933 75.0417 46.4933 75.415 46.04C75.7617 45.5867 76.1083 45.36 76.455 45.36C76.4817 45.36 76.6683 45.4933 77.015 45.76C77.3617 46.0533 77.8817 46.3333 78.575 46.6C79.2683 46.8933 80.0017 47.04 80.775 47.04C81.5217 47.04 82.1217 46.96 82.575 46.8C83.055 46.64 83.495 46.3067 83.895 45.8C84.295 45.2933 84.615 44.7067 84.855 44.04C85.1217 43.4 85.3883 42.4533 85.655 41.2C86.0017 39.4667 86.4417 36.3467 86.975 31.84L88.455 18.96H85.255C84.9083 18.96 84.6417 18.84 84.455 18.6C84.2683 18.36 84.175 18.08 84.175 17.76C84.175 17.4133 84.3083 17.08 84.575 16.76C84.8417 16.44 85.1217 16.28 85.415 16.28H88.775L89.295 11.72C89.7483 7.53333 90.6417 4.61333 91.975 2.96C93.2017 1.46667 94.9083 0.719999 97.095 0.719999C98.295 0.719999 99.4417 0.866665 100.535 1.16C101.628 1.45333 102.175 1.77333 102.175 2.12C102.175 2.52 102.028 2.97333 101.735 3.48C101.442 3.98667 101.122 4.24 100.775 4.24C100.748 4.24 100.588 4.17333 100.295 4.04C99.415 3.66667 98.4683 3.48 97.455 3.48C96.4683 3.48 95.6817 3.66667 95.095 4.04C94.535 4.41333 94.095 4.84 93.775 5.32C93.4817 5.8 93.215 6.49333 92.975 7.4C92.6817 8.46667 92.415 10 92.175 12L91.655 16.28H95.575C96.1883 16.28 96.495 16.68 96.495 17.48C96.495 17.8267 96.375 18.16 96.135 18.48C95.895 18.8 95.615 18.96 95.295 18.96ZM103.378 19.92C103.378 21.5733 102.618 22.4 101.098 22.4C99.8981 22.4 99.2981 21.8933 99.2981 20.88C99.2981 19.2533 100.058 18.44 101.578 18.44C102.778 18.44 103.378 18.9333 103.378 19.92ZM98.6981 43.12C98.4848 43.76 98.0181 44.08 97.2981 44.08C96.5781 44.08 96.2181 43.84 96.2181 43.36C96.2181 43.3333 96.2181 43.28 96.2181 43.2C96.2448 43.1467 96.2715 43.0267 96.2981 42.84C96.3248 42.6533 96.3648 42.4267 96.4181 42.16C96.4715 41.92 96.5381 41.5467 96.6181 41.04C96.7248 40.56 96.8315 40.0267 96.9381 39.44C97.0448 38.88 97.1781 38.1333 97.3381 37.2C97.5248 36.2667 97.7115 35.28 97.8981 34.24C98.0848 33.2 98.7248 32.68 99.8181 32.68C100.911 32.68 101.458 33.08 101.458 33.88C101.458 34.5467 100.538 37.6267 98.6981 43.12Z" fill="white"/>
</svg>
